<svg width="94" height="94" viewBox="0 0 94 94" fill="none" xmlns="http://www.w3.org/2000/svg">
<g clip-path="url(#clip0_11_68)">
<path d="M49.9375 32.3125C49.9375 31.5334 49.628 30.7863 49.0771 30.2354C48.5262 29.6845 47.7791 29.375 47 29.375C46.2209 29.375 45.4738 29.6845 44.9229 30.2354C44.372 30.7863 44.0625 31.5334 44.0625 32.3125V52.0643L35.6671 66.0467C35.2659 66.7152 35.1467 67.5156 35.3356 68.272C35.5246 69.0284 36.0062 69.6787 36.6747 70.0799C37.3431 70.4812 38.1436 70.6004 38.9 70.4115C39.6563 70.2225 40.3067 69.7408 40.7079 69.0724L49.5204 54.3849C49.7935 53.9286 49.9377 53.4068 49.9375 52.875V32.3125Z" fill="#F88446"/>
<path d="M38.1875 0C37.4084 0 36.6613 0.309486 36.1104 0.860374C35.5595 1.41126 35.25 2.15843 35.25 2.9375C35.25 3.71657 35.5595 4.46374 36.1104 5.01463C36.6613 5.56551 37.4084 5.875 38.1875 5.875H41.125V12.1612C33.1249 13.3171 25.6426 16.8045 19.613 22.1879C13.5833 27.5714 9.27356 34.6121 7.22209 42.4307C5.17062 50.2492 5.46837 58.4989 8.07816 66.1492C10.6879 73.7995 15.4941 80.5113 21.8961 85.446L18.3594 88.9827C17.8078 89.5336 17.4976 90.2809 17.4971 91.0604C17.4965 91.8399 17.8056 92.5877 18.3564 93.1393C18.9072 93.6909 19.6546 94.0011 20.4341 94.0016C21.2136 94.0022 21.9614 93.6931 22.513 93.1423L26.8957 88.7595C33.0352 92.2056 39.9595 94.0105 47 94C54.0405 94.0105 60.9648 92.2056 67.1042 88.7595L71.487 93.1423C72.0386 93.6931 72.7864 94.0022 73.5659 94.0016C74.3454 94.0011 75.0928 93.6909 75.6436 93.1393C76.1944 92.5877 76.5035 91.8399 76.5029 91.0604C76.5024 90.2809 76.1922 89.5336 75.6406 88.9827L72.1097 85.446C78.5119 80.5109 83.318 73.7987 85.9275 66.1479C88.537 58.4972 88.8342 50.2471 86.7821 42.4284C84.7299 34.6097 80.4194 27.569 74.389 22.186C68.3585 16.8029 60.8756 13.3161 52.875 12.1612V5.875H55.8125C56.5916 5.875 57.3387 5.56551 57.8896 5.01463C58.4405 4.46374 58.75 3.71657 58.75 2.9375C58.75 2.15843 58.4405 1.41126 57.8896 0.860374C57.3387 0.309486 56.5916 0 55.8125 0L38.1875 0ZM44.2857 17.7307C46.0926 17.5912 47.9074 17.5912 49.7142 17.7307C58.8009 18.4325 67.2626 22.6263 73.3239 29.4323C79.3852 36.2382 82.575 45.1273 82.2238 54.2342C81.8727 63.3412 78.008 71.9582 71.4406 78.2772C64.8733 84.5963 56.1137 88.1261 47 88.1261C37.8863 88.1261 29.1267 84.5963 22.5594 78.2772C15.992 71.9582 12.1273 63.3412 11.7762 54.2342C11.425 45.1273 14.6148 36.2382 20.676 29.4323C26.7373 22.6263 35.1991 18.4325 44.2857 17.7307ZM1.48806e-08 20.5625C1.48806e-08 24.9864 1.95637 28.9579 5.0525 31.6486C9.58817 22.7195 16.8445 15.4632 25.7736 10.9275C23.8107 8.66874 21.2046 7.06348 18.3042 6.32659C15.4038 5.5897 12.3475 5.75635 9.54447 6.80423C6.7414 7.8521 4.3253 9.7312 2.61957 12.19C0.913834 14.6488 -0.000134657 17.57 1.48806e-08 20.5625ZM79.3125 5.875C74.8886 5.875 70.9171 7.83138 68.2264 10.9275C77.1555 15.4632 84.4118 22.7195 88.9475 31.6486C91.2063 29.6857 92.8115 27.0796 93.5484 24.1792C94.2853 21.2788 94.1186 18.2225 93.0708 15.4195C92.0229 12.6164 90.1438 10.2003 87.685 8.49457C85.2262 6.78883 82.305 5.87487 79.3125 5.875Z" fill="#F88446"/>
</g>
<defs>
<clipPath id="clip0_11_68">
<rect width="94" height="94" fill="white"/>
</clipPath>
</defs>
</svg>
