<svg width="163" height="38" viewBox="0 0 163 38" fill="none" xmlns="http://www.w3.org/2000/svg">
<rect width="163" height="38" rx="19" fill="#F88446"/>
<path d="M39.816 26L34.92 14.8H37.176L41.544 24.928H40.248L44.664 14.8H46.744L41.864 26H39.816ZM50.9489 26.112C50.0742 26.112 49.2955 25.9253 48.6129 25.552C47.9302 25.168 47.3915 24.6453 46.9969 23.984C46.6022 23.3227 46.4049 22.5707 46.4049 21.728C46.4049 20.8747 46.6022 20.1227 46.9969 19.472C47.3915 18.8107 47.9302 18.2933 48.6129 17.92C49.2955 17.5467 50.0742 17.36 50.9489 17.36C51.8342 17.36 52.6182 17.5467 53.3009 17.92C53.9942 18.2933 54.5329 18.8053 54.9169 19.456C55.3115 20.1067 55.5089 20.864 55.5089 21.728C55.5089 22.5707 55.3115 23.3227 54.9169 23.984C54.5329 24.6453 53.9942 25.168 53.3009 25.552C52.6182 25.9253 51.8342 26.112 50.9489 26.112ZM50.9489 24.4C51.4395 24.4 51.8769 24.2933 52.2609 24.08C52.6449 23.8667 52.9435 23.5573 53.1569 23.152C53.3809 22.7467 53.4929 22.272 53.4929 21.728C53.4929 21.1733 53.3809 20.6987 53.1569 20.304C52.9435 19.8987 52.6449 19.5893 52.2609 19.376C51.8769 19.1627 51.4449 19.056 50.9649 19.056C50.4742 19.056 50.0369 19.1627 49.6529 19.376C49.2795 19.5893 48.9809 19.8987 48.7569 20.304C48.5329 20.6987 48.4209 21.1733 48.4209 21.728C48.4209 22.272 48.5329 22.7467 48.7569 23.152C48.9809 23.5573 49.2795 23.8667 49.6529 24.08C50.0369 24.2933 50.4689 24.4 50.9489 24.4ZM57.4214 26V14.128H59.4214V26H57.4214ZM65.6843 26.112C64.7456 26.112 64.0203 25.872 63.5082 25.392C62.9963 24.9013 62.7403 24.1813 62.7403 23.232V15.568H64.7403V23.184C64.7403 23.5893 64.8416 23.904 65.0443 24.128C65.2576 24.352 65.5509 24.464 65.9243 24.464C66.3723 24.464 66.7456 24.3467 67.0443 24.112L67.6043 25.536C67.3696 25.728 67.0816 25.872 66.7403 25.968C66.3989 26.064 66.0469 26.112 65.6843 26.112ZM61.3323 19.12V17.52H67.0283V19.12H61.3323ZM74.5135 26V24.272L74.4015 23.904V20.88C74.4015 20.2933 74.2255 19.84 73.8735 19.52C73.5215 19.1893 72.9882 19.024 72.2735 19.024C71.7935 19.024 71.3188 19.0987 70.8495 19.248C70.3908 19.3973 70.0015 19.6053 69.6815 19.872L68.8975 18.416C69.3562 18.064 69.9002 17.8027 70.5295 17.632C71.1695 17.4507 71.8308 17.36 72.5135 17.36C73.7508 17.36 74.7055 17.6587 75.3775 18.256C76.0602 18.8427 76.4015 19.7547 76.4015 20.992V26H74.5135ZM71.8255 26.112C71.1855 26.112 70.6255 26.0053 70.1455 25.792C69.6655 25.568 69.2922 25.264 69.0255 24.88C68.7695 24.4853 68.6415 24.0427 68.6415 23.552C68.6415 23.072 68.7535 22.64 68.9775 22.256C69.2122 21.872 69.5908 21.568 70.1135 21.344C70.6362 21.12 71.3295 21.008 72.1935 21.008H74.6735V22.336H72.3375C71.6548 22.336 71.1962 22.448 70.9615 22.672C70.7268 22.8853 70.6095 23.152 70.6095 23.472C70.6095 23.8347 70.7535 24.1227 71.0415 24.336C71.3295 24.5493 71.7295 24.656 72.2415 24.656C72.7322 24.656 73.1695 24.544 73.5535 24.32C73.9482 24.096 74.2308 23.7653 74.4015 23.328L74.7375 24.528C74.5455 25.0293 74.1988 25.4187 73.6975 25.696C73.2068 25.9733 72.5828 26.112 71.8255 26.112ZM78.9683 26V17.456H80.8723V19.808L80.6483 19.12C80.9043 18.544 81.3043 18.1067 81.8483 17.808C82.4029 17.5093 83.0909 17.36 83.9123 17.36V19.264C83.8269 19.2427 83.7469 19.232 83.6723 19.232C83.5976 19.2213 83.5229 19.216 83.4483 19.216C82.6909 19.216 82.0883 19.44 81.6403 19.888C81.1923 20.3253 80.9683 20.9813 80.9683 21.856V26H78.9683ZM95.3729 26V24.272L95.2609 23.904V20.88C95.2609 20.2933 95.0849 19.84 94.7329 19.52C94.3809 19.1893 93.8475 19.024 93.1329 19.024C92.6529 19.024 92.1782 19.0987 91.7089 19.248C91.2502 19.3973 90.8609 19.6053 90.5409 19.872L89.7569 18.416C90.2155 18.064 90.7595 17.8027 91.3889 17.632C92.0289 17.4507 92.6902 17.36 93.3729 17.36C94.6102 17.36 95.5649 17.6587 96.2369 18.256C96.9195 18.8427 97.2609 19.7547 97.2609 20.992V26H95.3729ZM92.6849 26.112C92.0449 26.112 91.4849 26.0053 91.0049 25.792C90.5249 25.568 90.1515 25.264 89.8849 24.88C89.6289 24.4853 89.5009 24.0427 89.5009 23.552C89.5009 23.072 89.6129 22.64 89.8369 22.256C90.0715 21.872 90.4502 21.568 90.9729 21.344C91.4955 21.12 92.1889 21.008 93.0529 21.008H95.5329V22.336H93.1969C92.5142 22.336 92.0555 22.448 91.8209 22.672C91.5862 22.8853 91.4689 23.152 91.4689 23.472C91.4689 23.8347 91.6129 24.1227 91.9009 24.336C92.1889 24.5493 92.5889 24.656 93.1009 24.656C93.5915 24.656 94.0289 24.544 94.4129 24.32C94.8075 24.096 95.0902 23.7653 95.2609 23.328L95.5969 24.528C95.4049 25.0293 95.0582 25.4187 94.5569 25.696C94.0662 25.9733 93.4422 26.112 92.6849 26.112ZM103.683 26.112C102.809 26.112 102.03 25.9253 101.347 25.552C100.665 25.168 100.126 24.6453 99.7313 23.984C99.3366 23.3227 99.1393 22.5707 99.1393 21.728C99.1393 20.8747 99.3366 20.1227 99.7313 19.472C100.126 18.8107 100.665 18.2933 101.347 17.92C102.03 17.5467 102.809 17.36 103.683 17.36C104.569 17.36 105.353 17.5467 106.035 17.92C106.729 18.2933 107.267 18.8053 107.651 19.456C108.046 20.1067 108.243 20.864 108.243 21.728C108.243 22.5707 108.046 23.3227 107.651 23.984C107.267 24.6453 106.729 25.168 106.035 25.552C105.353 25.9253 104.569 26.112 103.683 26.112ZM103.683 24.4C104.174 24.4 104.611 24.2933 104.995 24.08C105.379 23.8667 105.678 23.5573 105.891 23.152C106.115 22.7467 106.227 22.272 106.227 21.728C106.227 21.1733 106.115 20.6987 105.891 20.304C105.678 19.8987 105.379 19.5893 104.995 19.376C104.611 19.1627 104.179 19.056 103.699 19.056C103.209 19.056 102.771 19.1627 102.387 19.376C102.014 19.5893 101.715 19.8987 101.491 20.304C101.267 20.6987 101.155 21.1733 101.155 21.728C101.155 22.272 101.267 22.7467 101.491 23.152C101.715 23.5573 102.014 23.8667 102.387 24.08C102.771 24.2933 103.203 24.4 103.683 24.4ZM117.794 26.112C116.855 26.112 116.13 25.872 115.618 25.392C115.106 24.9013 114.85 24.1813 114.85 23.232V15.568H116.85V23.184C116.85 23.5893 116.951 23.904 117.154 24.128C117.367 24.352 117.66 24.464 118.034 24.464C118.482 24.464 118.855 24.3467 119.154 24.112L119.714 25.536C119.479 25.728 119.191 25.872 118.85 25.968C118.508 26.064 118.156 26.112 117.794 26.112ZM113.442 19.12V17.52H119.138V19.12H113.442ZM124.918 26.112C124.043 26.112 123.264 25.9253 122.582 25.552C121.899 25.168 121.36 24.6453 120.966 23.984C120.571 23.3227 120.374 22.5707 120.374 21.728C120.374 20.8747 120.571 20.1227 120.966 19.472C121.36 18.8107 121.899 18.2933 122.582 17.92C123.264 17.5467 124.043 17.36 124.918 17.36C125.803 17.36 126.587 17.5467 127.27 17.92C127.963 18.2933 128.502 18.8053 128.886 19.456C129.28 20.1067 129.478 20.864 129.478 21.728C129.478 22.5707 129.28 23.3227 128.886 23.984C128.502 24.6453 127.963 25.168 127.27 25.552C126.587 25.9253 125.803 26.112 124.918 26.112ZM124.918 24.4C125.408 24.4 125.846 24.2933 126.23 24.08C126.614 23.8667 126.912 23.5573 127.126 23.152C127.35 22.7467 127.462 22.272 127.462 21.728C127.462 21.1733 127.35 20.6987 127.126 20.304C126.912 19.8987 126.614 19.5893 126.23 19.376C125.846 19.1627 125.414 19.056 124.934 19.056C124.443 19.056 124.006 19.1627 123.622 19.376C123.248 19.5893 122.95 19.8987 122.726 20.304C122.502 20.6987 122.39 21.1733 122.39 21.728C122.39 22.272 122.502 22.7467 122.726 23.152C122.95 23.5573 123.248 23.8667 123.622 24.08C124.006 24.2933 124.438 24.4 124.918 24.4ZM136.126 26.112C135.433 26.112 134.798 25.952 134.222 25.632C133.657 25.312 133.203 24.832 132.862 24.192C132.531 23.5413 132.366 22.72 132.366 21.728C132.366 20.7253 132.526 19.904 132.846 19.264C133.177 18.624 133.625 18.1493 134.19 17.84C134.755 17.52 135.401 17.36 136.126 17.36C136.969 17.36 137.71 17.5413 138.35 17.904C139.001 18.2667 139.513 18.7733 139.886 19.424C140.27 20.0747 140.462 20.8427 140.462 21.728C140.462 22.6133 140.27 23.3867 139.886 24.048C139.513 24.6987 139.001 25.2053 138.35 25.568C137.71 25.9307 136.969 26.112 136.126 26.112ZM131.39 29.104V17.456H133.294V19.472L133.23 21.744L133.39 24.016V29.104H131.39ZM135.902 24.4C136.382 24.4 136.809 24.2933 137.182 24.08C137.566 23.8667 137.87 23.5573 138.094 23.152C138.318 22.7467 138.43 22.272 138.43 21.728C138.43 21.1733 138.318 20.6987 138.094 20.304C137.87 19.8987 137.566 19.5893 137.182 19.376C136.809 19.1627 136.382 19.056 135.902 19.056C135.422 19.056 134.99 19.1627 134.606 19.376C134.222 19.5893 133.918 19.8987 133.694 20.304C133.47 20.6987 133.358 21.1733 133.358 21.728C133.358 22.272 133.47 22.7467 133.694 23.152C133.918 23.5573 134.222 23.8667 134.606 24.08C134.99 24.2933 135.422 24.4 135.902 24.4ZM146.199 26.112C145.324 26.112 144.546 25.9253 143.863 25.552C143.18 25.168 142.642 24.6453 142.247 23.984C141.852 23.3227 141.655 22.5707 141.655 21.728C141.655 20.8747 141.852 20.1227 142.247 19.472C142.642 18.8107 143.18 18.2933 143.863 17.92C144.546 17.5467 145.324 17.36 146.199 17.36C147.084 17.36 147.868 17.5467 148.551 17.92C149.244 18.2933 149.783 18.8053 150.167 19.456C150.562 20.1067 150.759 20.864 150.759 21.728C150.759 22.5707 150.562 23.3227 150.167 23.984C149.783 24.6453 149.244 25.168 148.551 25.552C147.868 25.9253 147.084 26.112 146.199 26.112ZM146.199 24.4C146.69 24.4 147.127 24.2933 147.511 24.08C147.895 23.8667 148.194 23.5573 148.407 23.152C148.631 22.7467 148.743 22.272 148.743 21.728C148.743 21.1733 148.631 20.6987 148.407 20.304C148.194 19.8987 147.895 19.5893 147.511 19.376C147.127 19.1627 146.695 19.056 146.215 19.056C145.724 19.056 145.287 19.1627 144.903 19.376C144.53 19.5893 144.231 19.8987 144.007 20.304C143.783 20.6987 143.671 21.1733 143.671 21.728C143.671 22.272 143.783 22.7467 144.007 23.152C144.231 23.5573 144.53 23.8667 144.903 24.08C145.287 24.2933 145.719 24.4 146.199 24.4Z" fill="white"/>
<path d="M31.46 26.25L11.54 26.25L21.5 8.99902L31.46 26.25Z" stroke="white"/>
</svg>
